<svg width="286" height="294" viewBox="0 0 286 294" fill="none" xmlns="http://www.w3.org/2000/svg">
<g filter="url(#filter0_d_33_802)">
<path d="M200.2 171.6C231.79 171.6 257.4 197.209 257.4 228.8V235.95C257.4 263.592 234.992 286 207.35 286C179.708 286 157.3 263.592 157.3 235.95V228.8C157.3 220.902 163.702 214.5 171.6 214.5C179.498 214.5 185.9 220.902 185.9 228.8V235.95C185.9 247.797 195.504 257.4 207.35 257.4C219.196 257.4 228.8 247.797 228.8 235.95V228.8C228.8 213.005 215.995 200.2 200.2 200.2H57.1996C49.3021 200.2 42.8998 193.797 42.8998 185.9C42.9 178.002 49.3023 171.6 57.1996 171.6H200.2ZM214.5 128.7C222.398 128.701 228.8 135.103 228.8 143C228.8 150.898 222.398 157.3 214.5 157.3H71.5004C63.6028 157.3 57.1997 150.898 57.1996 143C57.1996 135.103 63.6027 128.7 71.5004 128.7H214.5ZM143 14.3C166.693 14.3002 185.9 33.5075 185.9 57.2004V64.3498C185.9 91.9917 163.492 114.4 135.85 114.4H42.8998C35.0022 114.4 28.6 107.997 28.6 100.1C28.6001 92.2023 35.0023 85.8001 42.8998 85.8H135.85C147.697 85.8 157.3 76.1963 157.3 64.3498V57.2004C157.3 49.3029 150.898 42.8998 143 42.8996C135.103 42.8996 128.7 49.3027 128.7 57.2004V61.0998C128.7 68.9975 122.297 75.3996 114.4 75.3996C106.502 75.3995 100.1 68.9974 100.1 61.0998V57.2004C100.1 33.5074 119.307 14.3 143 14.3Z" fill="#F3F3F3"/>
</g>
<defs>
<filter id="filter0_d_33_802" x="-4" y="0" width="294" height="294" filterUnits="userSpaceOnUse" color-interpolation-filters="sRGB">
<feFlood flood-opacity="0" result="BackgroundImageFix"/>
<feColorMatrix in="SourceAlpha" type="matrix" values="0 0 0 0 0 0 0 0 0 0 0 0 0 0 0 0 0 0 127 0" result="hardAlpha"/>
<feOffset dy="4"/>
<feGaussianBlur stdDeviation="2"/>
<feComposite in2="hardAlpha" operator="out"/>
<feColorMatrix type="matrix" values="0 0 0 0 0 0 0 0 0 0 0 0 0 0 0 0 0 0 0.25 0"/>
<feBlend mode="normal" in2="BackgroundImageFix" result="effect1_dropShadow_33_802"/>
<feBlend mode="normal" in="SourceGraphic" in2="effect1_dropShadow_33_802" result="shape"/>
</filter>
</defs>
</svg>
